<svg width="18" height="20" viewBox="0 0 18 20" fill="none" xmlns="http://www.w3.org/2000/svg">
<g id="User">
<g id="Group">
<path id="Vector" d="M1.70801 18.3333V17.2917C1.70801 16.3341 1.89661 15.3859 2.26305 14.5013C2.62949 13.6166 3.16659 12.8128 3.84369 12.1357C4.52078 11.4586 5.32461 10.9215 6.20927 10.555C7.09394 10.1886 8.04212 10 8.99967 10C9.95723 10 10.9054 10.1886 11.7901 10.555C12.6747 10.9215 13.4786 11.4586 14.1557 12.1357C14.8328 12.8128 15.3699 13.6166 15.7363 14.5013C16.1027 15.3859 16.2913 16.3341 16.2913 17.2917V18.3333" stroke="white" stroke-width="2" stroke-linecap="round" stroke-linejoin="round"/>
<path id="Vector_2" d="M8.99967 10C10.1047 10 11.1646 9.56103 11.946 8.77963C12.7274 7.99823 13.1663 6.93842 13.1663 5.83335C13.1663 4.72828 12.7274 3.66848 11.946 2.88708C11.1646 2.10567 10.1047 1.66669 8.99967 1.66669C7.89461 1.66669 6.8348 2.10567 6.0534 2.88708C5.27199 3.66848 4.83301 4.72828 4.83301 5.83335C4.83301 6.93842 5.27199 7.99823 6.0534 8.77963C6.8348 9.56103 7.89461 10 8.99967 10V10Z" stroke="white" stroke-width="2" stroke-linecap="round" stroke-linejoin="round"/>
</g>
</g>
</svg>
